<svg xmlns="http://www.w3.org/2000/svg" width="20" height="20" viewBox="0 0 20 20">
    <g>
        <circle cx="10" cy="10" r="10" fill="#1686b0"/>
        <path fill="#fff" d="M663.807-214.1h-2.5v-8.049h2.5zm-1.359-9.082a1.4 1.4 0 0 1-1.523-1.414 1.4 1.4 0 0 1 1.523-1.414 1.4 1.4 0 0 1 1.523 1.414 1.373 1.373 0 0 1-1.523 1.412zm11.42 9.082h-2.882v-4.187c0-1.088-.435-1.849-1.414-1.849a1.437 1.437 0 0 0-1.359.979 2.435 2.435 0 0 0-.054.653v4.351h-2.829s.054-7.4 0-8.048h2.828v1.251a2.611 2.611 0 0 1 2.5-1.36c1.795 0 3.208 1.142 3.208 3.644z" transform="translate(-657.251 229.908)"/>
    </g>
</svg>
